<?xml version="1.0" encoding="UTF-8" standalone="no"?>
<!DOCTYPE svg PUBLIC "-//W3C//DTD SVG 1.1//EN" "http://www.w3.org/Graphics/SVG/1.1/DTD/svg11.dtd">
<svg width="100%" height="100%" viewBox="0 0 200 141" version="1.1" xmlns="http://www.w3.org/2000/svg" xmlns:xlink="http://www.w3.org/1999/xlink" xml:space="preserve" xmlns:serif="http://www.serif.com/" style="fill-rule:evenodd;clip-rule:evenodd;stroke-linecap:round;stroke-linejoin:round;stroke-miterlimit:1.5;">
    <rect x="0" y="0" width="200" height="140.952" style="fill:none;"/>
    <g transform="matrix(1.29014,0,0,1.299378,-12.093219,-21.099028)">
        <g transform="matrix(1,0,0,1,16.764695,0)">
            <g transform="matrix(1,0,0,1,-3.466854,-1.538389)">
                <path d="M82.18,103.021L63.498,41.008" style="fill:none;stroke:rgb(0,119,255);stroke-width:2.25px;"/>
            </g>
            <path d="M41.926,101.483L60.031,39.47L41.926,101.483Z" style="fill:none;stroke:rgb(0,119,255);stroke-width:2.25px;"/>
            <path d="M33.143,70.476L41.926,101.483L33.143,70.476Z" style="fill:none;stroke:rgb(0,119,255);stroke-width:2.25px;"/>
            <g transform="matrix(0.733035,0,0,1,8.847886,0)">
                <path d="M134.031,70.476L34.319,70.476C31.672,70.476 34.319,70.476 34.319,70.476" style="fill:none;stroke:rgb(0,119,255);stroke-width:2.57px;"/>
            </g>
        </g>
        <g transform="matrix(0.415373,0,0,0.415373,47.58648,23.07494)">
            <path d="M95.478,39.47L118.614,39.47C121.877,39.47 125.005,40.762 127.303,43.061C127.799,43.556 128.323,44.081 128.863,44.621C133.604,49.362 133.604,57.013 128.863,61.753C128.445,62.171 128.038,62.579 127.649,62.968C125.35,65.267 122.222,66.56 118.959,66.56L100,66.56L135.118,101.678" style="fill:none;stroke:rgb(0,119,255);stroke-width:5.42px;"/>
        </g>
    </g>
</svg>
